<svg id="图层_1" data-name="图层 1" xmlns="http://www.w3.org/2000/svg" viewBox="0 0 510.24 510.24"><defs><style>.cls-1{fill:#13bce7;}.cls-2{fill:#fdfefe;}.cls-3{fill:#f6fbfd;}</style></defs><path class="cls-1" d="M0,510.21q0-254.52,0-509C0,.22.22,0,1.17,0q254,0,507.89,0c1,0,1.18.22,1.18,1.17q0,254,0,507.89c0,1-.22,1.18-1.18,1.18Q254.54,510.19,0,510.21ZM200.44,238.93c-1.26-3.31-2.05-6.53-3.1-9.65q-11.4-33.92-22.86-67.8a1.34,1.34,0,0,0-1.54-1.08q-11.08.06-22.18,0c-1.18,0-1.21.32-.83,1.29Q168.41,210,186.84,258.4a1.63,1.63,0,0,0,1.81,1.28c7.65-.06,15.3-.05,22.95,0a1.38,1.38,0,0,0,1.55-1.08q18.24-48.43,36.55-96.84c.39-1,.3-1.36-.92-1.35-7.26,0-14.53.06-21.8,0a1.67,1.67,0,0,0-1.93,1.42c-4.56,14.45-9.19,28.87-13.75,43.32-2.81,8.9-5.8,17.75-8.39,26.72A33.6,33.6,0,0,1,200.44,238.93ZM113.54,191v1.81q0,32.64,0,65.29c0,1.24.34,1.55,1.55,1.54,6.51-.06,13-.05,19.51,0,1.06,0,1.37-.29,1.37-1.36q0-48.52,0-97.05c0-1.11-.37-1.32-1.38-1.31-5,.05-9.95,0-14.92,0a1.83,1.83,0,0,0-1.75.94,58.5,58.5,0,0,1-9,10.56c-7.51,7-16.27,12.07-25.73,16A1.44,1.44,0,0,0,82.06,189q.07,8.22,0,16.45c0,1.06.27,1.2,1.23.89a112.58,112.58,0,0,0,18.06-7.59A102.21,102.21,0,0,0,113.54,191ZM287,191.1v1.68q0,32.72,0,65.43c0,1.19.34,1.47,1.49,1.46q9.82-.07,19.64,0c1,0,1.3-.27,1.3-1.29q0-48.6,0-97.18c0-1.06-.36-1.26-1.31-1.25q-7.53.06-15.05,0a1.73,1.73,0,0,0-1.64.89,56.91,56.91,0,0,1-7.35,9c-7.82,7.88-17.17,13.39-27.36,17.59a1.5,1.5,0,0,0-1.17,1.63q.08,8.16,0,16.33c0,1.11.29,1.24,1.29.92a105.18,105.18,0,0,0,25.83-12.21C284.05,193.13,285.43,192.17,287,191.1Zm96.78,99c.23.34.36.51.47.69,8.4,13.74,17.14,27.26,25.66,40.92a1.74,1.74,0,0,0,1.69,1q6.06-.07,12.11,0c.86,0,1-.27,1-1.08q0-29.26,0-58.53c0-.89-.23-1.16-1.13-1.14-3.49.05-7,.08-10.46,0-1.29,0-1.62.32-1.61,1.61.13,13.09-.13,26.18.16,39.27,0,.28.23.67-.13.84Q399,293.33,386.37,273a1.8,1.8,0,0,0-1.76-1.11c-4.25.07-8.5.05-12.75,0-.92,0-1.23.19-1.23,1.18q0,29.19,0,58.4c0,1,.33,1.18,1.23,1.17,3.57-.05,7.14-.06,10.71,0,1,0,1.27-.3,1.27-1.28q-.06-16.91,0-33.79Zm-37.56,7.43c-4.71,0-9.43,0-14.15,0-.95,0-1.24.24-1.22,1.21.07,2.89.08,5.78,0,8.67,0,1.14.3,1.41,1.41,1.4,5.1-.06,10.2,0,15.3,0,1,0,1.26.27,1.2,1.22a18.2,18.2,0,0,0,0,3.69c.34,2.4-.86,3.94-2.57,5.3a16.45,16.45,0,0,1-8.73,3.19c-6.94.78-14.92-2-17.71-11.22a27.76,27.76,0,0,1,.49-17.89,14.61,14.61,0,0,1,7.92-8.86c6.27-2.8,15.76-.66,19.53,6.13.43.77.84.84,1.61.55,3.57-1.37,7.14-2.71,10.75-4,1-.36.94-.75.51-1.54A24.38,24.38,0,0,0,348.39,274a36.23,36.23,0,0,0-26.51-.77,24.48,24.48,0,0,0-15.52,15.13,38.31,38.31,0,0,0-.26,27.29,24.82,24.82,0,0,0,16.11,16,40,40,0,0,0,28.05-.89,20.63,20.63,0,0,0,10.94-9.69,3.79,3.79,0,0,0,.48-1.81c0-6.85,0-13.69,0-20.53,0-1-.31-1.29-1.3-1.28C355.67,297.54,351,297.51,346.23,297.51Zm-240.87,4.75c0,9.65,0,19.29,0,28.94,0,1.27.36,1.5,1.55,1.5,6.84-.05,13.68,0,20.52,0a47.38,47.38,0,0,0,10.75-1.08c9.84-2.27,16.31-8.09,18.63-18a44.93,44.93,0,0,0-.27-21.71,23.94,23.94,0,0,0-15.44-17.18A44.18,44.18,0,0,0,125.86,272c-6.38-.09-12.75,0-19.12-.06-1.13,0-1.42.27-1.41,1.4C105.38,283,105.36,292.62,105.36,302.26Zm61.24,0q0,14.6,0,29.2c0,.76,0,1.23,1,1.23q22.89,0,45.78,0c.79,0,1-.24,1-1,0-2.81-.08-5.61,0-8.42,0-1.21-.29-1.56-1.54-1.56-10.33.06-20.66,0-31,.06-1.06,0-1.36-.27-1.34-1.33.06-3.83.07-7.66,0-11.48,0-1.1.33-1.31,1.36-1.31,9.3,0,18.61,0,27.92.06,1.36,0,1.61-.41,1.58-1.64-.09-2.8-.08-5.61,0-8.42,0-1.13-.26-1.5-1.46-1.49-9.4.05-18.79,0-28.18.05-.95,0-1.24-.23-1.22-1.2.06-3.36.09-6.72,0-10.07,0-1.26.33-1.52,1.54-1.52,10.08.06,20.15,0,30.23.06,1,0,1.27-.29,1.25-1.28-.06-3-.07-5.95,0-8.92,0-1.08-.29-1.33-1.34-1.33q-22.12.06-44.25,0c-1.09,0-1.42.22-1.42,1.38C166.63,283,166.6,292.61,166.6,302.26Zm82.19,31.53a36.42,36.42,0,0,0,13.75-2.66A16.87,16.87,0,0,0,271.66,310c-1.87-5.16-5.71-8.42-10.48-10.75a61.49,61.49,0,0,0-13.42-4.33,21,21,0,0,1-7.88-3.11,4.81,4.81,0,0,1,.1-8.06,7.89,7.89,0,0,1,2.41-1.11,15.92,15.92,0,0,1,5.05-.49c5.29.21,8.46,2.77,9.69,7.89.19.76.49.85,1.13.73,3.92-.74,7.84-1.49,11.77-2.18.77-.13,1-.36.82-1.14-1.75-7.28-5.9-12.42-13.15-14.78a36.44,36.44,0,0,0-16.76-1.06,25.75,25.75,0,0,0-11.05,4c-8.69,5.88-9.58,20.7,1.18,26.58a26.11,26.11,0,0,0,7.11,2.71,90.41,90.41,0,0,1,12.54,3.31,14.89,14.89,0,0,1,4.57,2.47,6.85,6.85,0,0,1-1.47,11.6,13.7,13.7,0,0,1-5.2,1.11c-6.91.39-11.8-3.23-13.42-10a17.21,17.21,0,0,1-.38-1.87c-.09-.66-.34-.8-1-.66-4,.85-8,1.65-12,2.44-.62.12-.84.33-.67,1,2,8.34,6.46,14.59,14.79,17.6A37.28,37.28,0,0,0,248.79,333.79Zm46.33-31.35c0-9.73,0-19.46,0-29.19,0-.94-.16-1.34-1.24-1.32-4,.07-8,.05-12,0-.82,0-1.09.21-1.09,1.06q0,29.33,0,58.64c0,.86.29,1.05,1.09,1,3.87,0,7.74-.06,11.6,0,1.24,0,1.65-.23,1.64-1.58C295.09,321.56,295.12,312,295.12,302.44Zm-32.48,62.7h8.8c.64,0,1.24.13,1.25-.91s-.49-1-1.25-1c-5.83,0-11.65,0-17.47,0-.86,0-1.26-.18-1.17-1.12.08-.75,0-1.52,0-2.29,0-.47-.14-.66-.64-.72-1.67-.2-1.86-.05-1.86,1.68v.77c0,1.67,0,1.67-1.62,1.67-5.52,0-11,0-16.57,0-.65,0-1.46-.33-1.48.93s.73,1,1.42,1c5.66,0,11.31.05,17,0,1.3,0,1.36.57,1.3,1.53s.26,1.74-1.25,1.7c-3.91-.11-7.82,0-11.73-.07-1.09,0-1.38.33-1.33,1.37a43.39,43.39,0,0,1,0,5.1c-.07,1.15.32,1.42,1.42,1.4,3.91-.07,7.82,0,11.73,0,.87,0,1.28.23,1.15,1.13a3.31,3.31,0,0,0,0,.77c.17,1-.21,1.37-1.3,1.36-4.8-.06-9.6,0-14.41,0-.76,0-1.24,0-1.23,1s.42,1.07,1.21,1.06c4.42,0,8.84,0,13.26,0,2.48,0,2.43,0,2.49,2.46,0,1-.23,1.36-1.32,1.35-5.78-.05-11.56,0-17.34,0-.72,0-1.17,0-1.16,1s.28,1.13,1.16,1.13c5.35,0,10.71,0,16.06,0,2.59,0,2.53,0,2.61,2.6,0,1.17-.3,1.48-1.47,1.47-4.85-.07-9.69,0-14.54-.05-.87,0-1.16.21-1.17,1.13s.47,1,1.18,1c4.93,0,9.86,0,14.79,0,1,0,1.33.26,1.18,1.21a6.42,6.42,0,0,0,0,.76c0,2.22-.67,2.91-2.88,2.9-1.87,0-3.74-.07-5.61-.1-.26,0-.61-.21-.69.28a2,2,0,0,0,2,2.32h3.44c4.9,0,6.24-1.31,6.28-6.14v-.13c-.12-.79.14-1.11,1-1.1,3.57.05,7.14,0,10.71,0,.77,0,1.25.13,1.1,1s.31,1.19,1.23,1.21,1.16-.46,1.14-1.31c0-2,0-4,0-6,0-.86.29-1.11,1.1-1.07,1,.06,2.05,0,3.06,0s.84-.45.83-1,.09-1.12-.8-1.06-2-.05-3.06,0S268,384.9,268,384c.06-1.14,0-2.29,0-3.44.06-1-.2-1.31-1.25-1.3-4.29.07-8.58,0-12.88.05-.8,0-1.2-.18-1.08-1.05a3,3,0,0,0,0-.89c-.17-1.1.32-1.34,1.35-1.32,4,.06,7.9,0,11.86,0,1,0,1.36-.18,1.31-1.25a50.25,50.25,0,0,1,0-5.35c.05-1.06-.36-1.26-1.31-1.25-3.74.05-7.48,0-11.22,0-2.27,0-1.91.39-2-2.05,0-.93.32-1.13,1.17-1.11C256.86,365.17,259.75,365.14,262.64,365.14Zm61.2,9.68c-.48.2-.74.32-1,.42a76.14,76.14,0,0,1-15.8,3.87c-2.1.29-2.09.24-1.15,2.13a.86.86,0,0,0,1.08.58c6-1.07,12-2.21,17.71-4.56a4.78,4.78,0,0,1,4.16,0c4.95,2.15,10.23,3,15.55,3.7,1.36.18,2.27.15,2.87-1.34.37-.92.25-1-.63-1.07a77.28,77.28,0,0,1-11.43-1.82,20.86,20.86,0,0,1-5.34-1.79l1.1-.72a73.56,73.56,0,0,0,10.14-7.7,2.79,2.79,0,0,0,.66-3c-.17-.74-1.18-.34-1.81-.35-6.46,0-12.92,0-19.38,0-.46,0-1,.18-1.42-.28a21.55,21.55,0,0,0,1.48-2c.21-.34,1.07-.83.29-1.17s-1.59-1.45-2.4-.25a45.39,45.39,0,0,1-12.11,12.25c-.2.13-.59.33-.43.54a8.18,8.18,0,0,0,1.63,1.59c.4.27.72-.31,1-.56a69.49,69.49,0,0,0,6.05-5.46c.38-.39.66-.74,1.19-.11A35.88,35.88,0,0,0,323.84,374.82Zm89.76,14.61q0,5.35,0,10.71c0,.38-.19.86.37,1.09,1.2.5,2.13-.08,2.13-1.35,0-6.93,0-13.86,0-20.78,0-1.16.33-1.47,1.43-1.39,1.35.09,2.72,0,4.07,0,.88,0,1.39-.05,1.4-1.2s-.53-1.2-1.4-1.19c-5.1,0-10.2,0-15.29,0-1,0-1.24-.24-1.22-1.21.06-2.68.06-5.35,0-8,0-.91.3-1.11,1.14-1.18,4.91-.44,9.81-.94,14.71-1.43.32,0,.84.11.91-.24.15-.68-.37-1.26-.56-1.9s-.68-.41-1.07-.34a137.65,137.65,0,0,1-16.47,1.6c-1,0-1.18.34-1.18,1.27.05,4.8,0,9.6,0,14.4a59.94,59.94,0,0,1-.77,9.26,20.5,20.5,0,0,1-5.68,11c-.65.68-.91,1.17.06,1.72a1.45,1.45,0,0,1,.47.42c.55.76,1,.48,1.48-.09a24.78,24.78,0,0,0,4.18-6.51,37.29,37.29,0,0,0,2.79-15.29c0-.89.23-1.19,1.13-1.16,2,.06,4.08.07,6.12,0,1,0,1.31.24,1.3,1.27C413.56,382.46,413.6,386,413.6,389.43Zm-303.74,4a39.78,39.78,0,0,0,8.45-10.51,5.89,5.89,0,0,0,.8-3.14c0-.87-.31-1.08-1.11-1.08-7.31,0-14.62,0-21.93,0-1,0-1.16.41-1.15,1.28s.08,1.41,1.14,1.28c.6-.07,1.22-.14,1.55.7a28.7,28.7,0,0,0,7.82,11.34c-1.06.58-2,1.14-3,1.61a61.4,61.4,0,0,1-10.77,3.85c-.35.1-1,.21-1,.41a10.84,10.84,0,0,0,1,2c.25.47.62.29,1,.18a59.13,59.13,0,0,0,13.93-5.83,1.47,1.47,0,0,1,1.73-.1,67.63,67.63,0,0,0,12.52,5.31c.94.31,1.92-.5,2.2-1.9.21-1-.79-.69-1.2-.8A46.8,46.8,0,0,1,109.86,393.44Zm195.59,5.92a13.13,13.13,0,0,1,1,1.26,1.49,1.49,0,0,0,2.13.62,36.6,36.6,0,0,0,7.63-3.77c3.57-2.46,6.15-5.59,6.8-10,.09-.67.47-.79,1.05-.79,4.63,0,9.27,0,13.9,0,.66,0,.88.22.87.88a56.22,56.22,0,0,1-.47,6.23c-.37,2.87-1.94,4.22-4.8,4.16-2.08-.05-4.17-.05-6.25-.19-1.12-.08-1.49.19-1,1.29.24.58-.17,1.54,1,1.52,2.42-.05,4.85.06,7.27-.06a6.35,6.35,0,0,0,6.47-6.11c.27-2.88.32-5.78.59-8.65.11-1.25-.33-1.47-1.46-1.46-5.18.06-10.37,0-15.56,0-.75,0-1.21,0-1-1a21.31,21.31,0,0,0,.33-2.78c.07-.59-.13-.81-.76-.85-1.84-.1-1.85-.12-1.95,1.67,0,.51-.08,1-.06,1.53,0,1.12-.43,1.52-1.61,1.49-3.31-.09-6.63,0-9.94,0-.42,0-1-.23-1.17.44-.39,1.25.06,1.91,1.36,1.92,3.14,0,6.29,0,9.43,0,1,0,1.21.27,1,1.23A11.55,11.55,0,0,1,318.3,392a17.8,17.8,0,0,1-7,5.22A56.17,56.17,0,0,1,305.45,399.36Zm86.49-13c1.53,0,3.06,0,4.59,0,.92,0,1.25-.21,1.23-1.2-.06-3.91-.05-7.82,0-11.73,0-1-.26-1.23-1.21-1.21-3,.05-6,0-9.06,0-.88,0-1.19-.27-1.16-1.16q.09-2.61,0-5.22c0-.9.29-1.13,1.15-1.19,3.6-.28,7.2-.58,10.76-1.2.31-.06.73.06.82-.41a1.85,1.85,0,0,0-1.88-1.88,107.47,107.47,0,0,1-12.41,1.34c-.88,0-1.1.35-1.11,1.22-.05,7.9.2,15.81-.19,23.71a21.79,21.79,0,0,1-3.19,11c-1,1.5.38,1.73,1,2.26.95.77,1-.41,1.25-.81a25.71,25.71,0,0,0,3.53-12.36c.06-1,.43-1.27,1.38-1.23C389,386.45,390.45,386.4,391.94,386.4Zm-303-53.73c2,0,4.08,0,6.11,0,.9,0,1.26-.16,1.24-1.17-.06-3.9,0-7.81,0-11.71,0-.91-.29-1.15-1.16-1.14-4.08,0-8.15,0-12.23,0-.85,0-1.2.19-1.18,1.12q.06,5.93,0,11.85c0,.87.3,1.06,1.1,1C84.84,332.63,86.88,332.67,88.92,332.67Zm96.29,56.5c0-3.53,0-7.06,0-10.59,0-1.8-.28-1.66,1.73-1.67,3.27,0,6.55,0,9.82,0,.95,0,1.53,0,1.52-1.3s-.7-1.24-1.58-1.24c-3.27,0-6.55,0-9.82,0-2,0-1.66.12-1.67-1.73,0-4,0-8.08,0-12.12,0-1.06-.26-1.38-1.34-1.36s-1.41.18-1.4,1.31c.07,4.25,0,8.5.05,12.76,0,.89-.29,1.17-1.17,1.16-3.57,0-7.14,0-10.71,0-1,0-1.22.35-1.2,1.26s.1,1.32,1.15,1.3c3.49-.06,7,0,10.46-.05,1.21,0,1.48.38,1.47,1.52,0,7.27,0,14.54,0,21.81,0,1.06.27,1.38,1.34,1.36s1.42-.16,1.39-1.3C185.17,396.57,185.21,392.87,185.21,389.17Zm-77.15-27.79c-2.5,0-5,.06-7.52,0-1.1,0-1.35.34-1.31,1.37a34.11,34.11,0,0,1,0,5.35c-.37,3.13-2.36,5.06-5.14,6.3-.32.14-.83.12-.9.58s1.82,1.91,2.29,1.68c3.17-1.57,5.43-3.87,6.14-7.48a19,19,0,0,0,.16-4.19c0-.72.14-1.08,1-1.07,3.49,0,7,0,10.46,0,.84,0,1.09.31,1.08,1.12,0,2.13-.05,4.25,0,6.38a3.26,3.26,0,0,0,2.94,3.32,26.32,26.32,0,0,0,5.47.13c1.27-.06.68-1.27.87-1.94s-.58-.52-1-.54c-1,0-2,0-2.94,0-2.48,0-2.93-.42-2.94-2.85s0-4.59,0-6.88c0-1.05-.34-1.28-1.31-1.26C113,361.42,110.53,361.38,108.06,361.38Zm64.57,29c-2.71,1.82-5.33,3.66-8.28,5.32v-1.56c0-6.28,0-12.57,0-18.85,0-.85-.17-1.21-1.11-1.18-2.2.06-4.41.07-6.62,0-1.06,0-1,.53-1,1.26s-.15,1.38,1,1.3c1.31-.08,2.63,0,3.95,0,1-.05,1.31.23,1.31,1.26,0,5.82,0,11.64,0,17.46a3.3,3.3,0,0,1-.84,2.46c-.62.59-.42,1,.12,1.41a5.44,5.44,0,0,1,.72.72c.4.46.72.65,1.17,0a7.44,7.44,0,0,1,2.23-1.86c2.49-1.54,5-3.11,7.47-4.62.6-.35.74-.68.48-1.3S172.84,391.06,172.63,390.39Zm-83.87,2.14a2.07,2.07,0,0,1-.21-1.37c0-5.3,0-10.61,0-15.92,0-.85-.18-1.21-1.11-1.18-1.87.07-3.74,0-5.61,0-.68,0-.93.18-1,.93-.08,1.16.27,1.61,1.46,1.47.8-.09,1.62,0,2.42,0,1-.08,1.32.19,1.31,1.24-.06,5.27,0,10.53,0,15.8a3.76,3.76,0,0,1-.48,2.2c-.67,1,.19,1.19.69,1.64s.94.4,1.45-.16c2-2.24,4.07-4.46,6.2-6.59a1.66,1.66,0,0,0,.32-2.51c-.57-.87-.8-.81-1.39-.12C91.51,389.48,90.15,391,88.76,392.53Zm79.86-25.47a5.47,5.47,0,0,0-.39-.48c-2.18-2.08-4.32-4.21-6.57-6.21-1-.87-1.25.55-1.86.88s-.11.76.2,1.05c2,1.85,3.89,3.8,5.71,5.82.23.26.4.93.94.55C167.35,368.19,168,367.61,168.62,367.06Zm-75.81.34c-.2-.25-.29-.39-.4-.51a74.58,74.58,0,0,0-6-6c-.91-.78-1.25.46-1.83.76s-.12.76.17,1.07c1.78,1.93,3.56,3.87,5.36,5.78.25.26.43.92,1,.51S92.22,367.94,92.81,367.4Z"/><path class="cls-2" d="M200.44,238.93a33.6,33.6,0,0,0,2.47-7.08c2.59-9,5.58-17.82,8.39-26.72,4.56-14.45,9.19-28.87,13.75-43.32a1.67,1.67,0,0,1,1.93-1.42c7.27.07,14.54.06,21.8,0,1.22,0,1.31.31.92,1.35q-18.3,48.41-36.55,96.84a1.38,1.38,0,0,1-1.55,1.08c-7.65,0-15.3-.05-22.95,0a1.63,1.63,0,0,1-1.81-1.28Q168.41,210,149.93,161.69c-.38-1-.35-1.3.83-1.29q11.09.06,22.18,0a1.34,1.34,0,0,1,1.54,1.08q11.42,33.9,22.86,67.8C198.39,232.4,199.18,235.62,200.44,238.93Z"/><path class="cls-2" d="M113.54,191a102.21,102.21,0,0,1-12.18,7.67A112.58,112.58,0,0,1,83.3,206.3c-1,.31-1.24.17-1.23-.89q.06-8.22,0-16.45a1.44,1.44,0,0,1,1.12-1.54c9.46-3.9,18.22-8.93,25.73-16a58.5,58.5,0,0,0,9-10.56,1.83,1.83,0,0,1,1.75-.94c5,0,9.94.05,14.92,0,1,0,1.38.2,1.38,1.31q0,48.53,0,97.05c0,1.07-.31,1.37-1.37,1.36-6.5,0-13-.05-19.51,0-1.21,0-1.56-.3-1.55-1.54q.06-32.64,0-65.29Z"/><path class="cls-2" d="M287,191.1c-1.58,1.07-3,2-4.36,3a105.18,105.18,0,0,1-25.83,12.21c-1,.32-1.3.19-1.29-.92q.08-8.16,0-16.33a1.5,1.5,0,0,1,1.17-1.63c10.19-4.2,19.54-9.71,27.36-17.59a56.91,56.91,0,0,0,7.35-9,1.73,1.73,0,0,1,1.64-.89q7.51.06,15.05,0c.95,0,1.32.19,1.31,1.25q0,48.59,0,97.18c0,1-.3,1.3-1.3,1.29q-9.83-.06-19.64,0c-1.15,0-1.49-.27-1.49-1.46q.06-32.71,0-65.43Z"/><path class="cls-2" d="M383.79,290.08v7.54q0,16.89,0,33.79c0,1-.24,1.3-1.27,1.28-3.57-.06-7.14-.05-10.71,0-.9,0-1.23-.17-1.23-1.17q.06-29.2,0-58.4c0-1,.31-1.19,1.23-1.18,4.25,0,8.5.06,12.75,0a1.8,1.8,0,0,1,1.76,1.11q12.6,20.29,25.24,40.6c.36-.17.14-.56.13-.84-.29-13.09,0-26.18-.16-39.27,0-1.29.32-1.64,1.61-1.61,3.48.1,7,.07,10.46,0,.9,0,1.13.25,1.13,1.14q0,29.26,0,58.53c0,.81-.19,1.09-1,1.08q-6.06-.07-12.11,0a1.74,1.74,0,0,1-1.69-1c-8.52-13.66-17.26-27.18-25.66-40.92C384.15,290.59,384,290.42,383.79,290.08Z"/><path class="cls-2" d="M346.23,297.51c4.72,0,9.44,0,14.16,0,1,0,1.31.24,1.3,1.28,0,6.84,0,13.68,0,20.53a3.79,3.79,0,0,1-.48,1.81,20.63,20.63,0,0,1-10.94,9.69,40,40,0,0,1-28.05.89,24.82,24.82,0,0,1-16.11-16,38.31,38.31,0,0,1,.26-27.29,24.48,24.48,0,0,1,15.52-15.13,36.23,36.23,0,0,1,26.51.77,24.38,24.38,0,0,1,12.19,11.3c.43.79.52,1.18-.51,1.54-3.61,1.26-7.18,2.6-10.75,4-.77.29-1.18.22-1.61-.55-3.77-6.79-13.26-8.93-19.53-6.13a14.61,14.61,0,0,0-7.92,8.86,27.76,27.76,0,0,0-.49,17.89c2.79,9.25,10.77,12,17.71,11.22a16.45,16.45,0,0,0,8.73-3.19c1.71-1.36,2.91-2.9,2.57-5.3a18.2,18.2,0,0,1,0-3.69c.06-.95-.23-1.23-1.2-1.22-5.1,0-10.2,0-15.3,0-1.11,0-1.45-.26-1.41-1.4.08-2.89.07-5.78,0-8.67,0-1,.27-1.22,1.22-1.21C336.8,297.54,341.52,297.51,346.23,297.51Z"/><path class="cls-2" d="M105.36,302.26c0-9.64,0-19.29,0-28.93,0-1.13.28-1.41,1.41-1.4,6.37.06,12.74,0,19.12.06a44.18,44.18,0,0,1,15.21,2.71,23.94,23.94,0,0,1,15.44,17.18,44.93,44.93,0,0,1,.27,21.71c-2.32,10-8.79,15.77-18.63,18a47.38,47.38,0,0,1-10.75,1.08c-6.84,0-13.68-.06-20.52,0-1.19,0-1.56-.23-1.55-1.5C105.39,321.55,105.36,311.91,105.36,302.26Zm14.27.3c0,6,0,12,0,18,0,1,.25,1.24,1.21,1.21,2.5-.09,5,0,7.51-.28,7-.82,11.83-4.78,13.68-11.39a27.44,27.44,0,0,0,.21-14.11c-1.59-6.44-5.65-10.36-12.12-11.83a44.77,44.77,0,0,0-8.87-.74c-1.23,0-1.65.22-1.63,1.57C119.68,290.83,119.63,296.7,119.63,302.56Z"/><path class="cls-2" d="M166.6,302.26c0-9.65,0-19.3,0-28.95,0-1.16.33-1.38,1.42-1.38q22.13.06,44.25,0c1,0,1.37.25,1.34,1.33-.07,3-.06,5.95,0,8.92,0,1-.23,1.28-1.25,1.28-10.08,0-20.15,0-30.23-.06-1.21,0-1.58.26-1.54,1.52.1,3.35.07,6.71,0,10.07,0,1,.27,1.2,1.22,1.2,9.39,0,18.78,0,28.18-.05,1.2,0,1.49.36,1.46,1.49-.08,2.81-.09,5.62,0,8.42,0,1.23-.22,1.65-1.58,1.64-9.31-.07-18.62,0-27.92-.06-1,0-1.38.21-1.36,1.31.07,3.82.06,7.65,0,11.48,0,1.06.28,1.33,1.34,1.33,10.32,0,20.65,0,31-.06,1.25,0,1.58.35,1.54,1.56-.09,2.81-.05,5.61,0,8.42,0,.77-.23,1-1,1q-22.89,0-45.78,0c-1,0-1-.47-1-1.23Q166.62,316.87,166.6,302.26Z"/><path class="cls-2" d="M248.79,333.79A37.28,37.28,0,0,1,236,331.93c-8.33-3-12.8-9.26-14.79-17.6-.17-.69.05-.9.67-1,4-.79,8-1.59,12-2.44.67-.14.92,0,1,.66a17.21,17.21,0,0,0,.38,1.87c1.62,6.72,6.51,10.34,13.42,10a13.7,13.7,0,0,0,5.2-1.11,6.85,6.85,0,0,0,1.47-11.6,14.89,14.89,0,0,0-4.57-2.47,90.41,90.41,0,0,0-12.54-3.31,26.11,26.11,0,0,1-7.11-2.71c-10.76-5.88-9.87-20.7-1.18-26.58a25.75,25.75,0,0,1,11.05-4,36.44,36.44,0,0,1,16.76,1.06c7.25,2.36,11.4,7.5,13.15,14.78.19.78-.05,1-.82,1.14-3.93.69-7.85,1.44-11.77,2.18-.64.12-.94,0-1.13-.73-1.23-5.12-4.4-7.68-9.69-7.89a15.92,15.92,0,0,0-5.05.49,7.89,7.89,0,0,0-2.41,1.11,4.81,4.81,0,0,0-.1,8.06,21,21,0,0,0,7.88,3.11,61.49,61.49,0,0,1,13.42,4.33c4.77,2.33,8.61,5.59,10.48,10.75a16.87,16.87,0,0,1-9.12,21.14A36.42,36.42,0,0,1,248.79,333.79Z"/><path class="cls-2" d="M295.12,302.44c0,9.56,0,19.12,0,28.68,0,1.35-.4,1.6-1.64,1.58-3.86-.08-7.73-.05-11.6,0-.8,0-1.09-.18-1.09-1q0-29.33,0-58.64c0-.85.27-1.07,1.09-1.06,4,0,8,.06,12,0,1.08,0,1.24.38,1.24,1.32C295.11,283,295.12,292.71,295.12,302.44Z"/><path class="cls-2" d="M262.64,365.14c-2.89,0-5.78,0-8.67,0-.85,0-1.21.18-1.17,1.11.09,2.44-.27,2,2,2.05,3.74,0,7.48,0,11.22,0,1,0,1.36.19,1.31,1.25a50.25,50.25,0,0,0,0,5.35c.05,1.07-.36,1.26-1.31,1.25-4,0-7.91,0-11.86,0-1,0-1.52.22-1.35,1.32a3,3,0,0,1,0,.89c-.12.87.28,1.05,1.08,1.05,4.3,0,8.59,0,12.88-.05,1.05,0,1.31.34,1.25,1.3-.07,1.15,0,2.3,0,3.44,0,.86.2,1.24,1.13,1.17s2,0,3.06,0,.79.5.8,1.06,0,1.09-.83,1-2,0-3.06,0c-.81,0-1.12.21-1.1,1.07.06,2,0,4,0,6,0,.85-.08,1.34-1.14,1.31s-1.39-.23-1.23-1.21-.33-1-1.1-1c-3.57,0-7.14,0-10.71,0-.88,0-1.14.31-1,1.1v.13c0,4.83-1.38,6.14-6.28,6.14H243.1a2,2,0,0,1-2-2.32c.08-.49.43-.28.69-.28,1.87,0,3.74.09,5.61.1,2.21,0,2.88-.68,2.88-2.9a6.42,6.42,0,0,1,0-.76c.15-.95-.22-1.22-1.18-1.21-4.93.05-9.86,0-14.79,0-.71,0-1.19,0-1.18-1s.3-1.14,1.17-1.13c4.85,0,9.69,0,14.54.05,1.17,0,1.5-.3,1.47-1.47-.08-2.6,0-2.6-2.61-2.6-5.35,0-10.71,0-16.06,0-.88,0-1.16-.22-1.16-1.13s.44-1,1.16-1c5.78,0,11.56,0,17.34,0,1.09,0,1.35-.31,1.32-1.35-.06-2.46,0-2.46-2.49-2.46-4.42,0-8.84,0-13.26,0-.79,0-1.21-.07-1.21-1.06s.47-1,1.23-1c4.81,0,9.61,0,14.41,0,1.09,0,1.47-.33,1.3-1.36a3.31,3.31,0,0,1,0-.77c.13-.9-.28-1.14-1.15-1.13-3.91,0-7.82,0-11.73,0-1.1,0-1.49-.25-1.42-1.4a43.39,43.39,0,0,0,0-5.1c-.05-1,.24-1.38,1.33-1.37,3.91.07,7.82,0,11.73.07,1.51,0,1.19-.85,1.25-1.7s0-1.55-1.3-1.53c-5.65.08-11.3,0-17,0-.69,0-1.43.23-1.42-1s.83-.93,1.48-.93c5.52,0,11.05,0,16.57,0,1.62,0,1.62,0,1.62-1.67v-.77c0-1.73.19-1.88,1.86-1.68.5.06.66.25.64.72,0,.77.06,1.54,0,2.29-.09.94.31,1.13,1.17,1.12,5.82,0,11.64,0,17.47,0,.76,0,1.27,0,1.25,1s-.61.92-1.25.91Zm-3.37,26.18h3.44c3,0,3,0,3-3,0-.85-.26-1.08-1.09-1.07-2.92,0-5.85,0-8.77,0-3.16,0-3.14,0-3,3.18,0,.66.21.89.88.87C255.54,391.29,257.41,391.32,259.27,391.32Zm-.33-21.08h-3.3c-2.88,0-2.84,0-2.85,2.86,0,.95.37,1.1,1.19,1.09,2.67-.05,5.34,0,8,0,2.88,0,2.85,0,2.84-2.85,0-.82-.2-1.13-1.06-1.1C262.17,370.28,260.55,370.24,258.94,370.24Zm-14.47,0h-3.32c-2.89,0-2.86,0-2.79,2.94,0,.79.28,1,1,1,2.67,0,5.34,0,8,0,3.09,0,3.07,0,2.9-3.06,0-.67-.25-.89-.9-.88C247.78,370.26,246.12,370.24,244.47,370.24Zm14.6,15H263c2.7,0,2.66,0,2.66-2.67,0-.88-.24-1.16-1.14-1.14-3,.05-6,0-9,0-2.79,0-2.76,0-2.7,2.85,0,.7.19,1,.93.95C255.51,385.16,257.29,385.2,259.07,385.2Z"/><path class="cls-3" d="M323.84,374.82a35.88,35.88,0,0,1-8-7.08c-.53-.63-.81-.28-1.19.11a69.49,69.49,0,0,1-6.05,5.46c-.31.25-.63.83-1,.56a8.18,8.18,0,0,1-1.63-1.59c-.16-.21.23-.41.43-.54a45.39,45.39,0,0,0,12.11-12.25c.81-1.2,1.71-.06,2.4.25s-.08.83-.29,1.17a21.55,21.55,0,0,1-1.48,2c.42.46,1,.28,1.42.28,6.46,0,12.92,0,19.38,0,.63,0,1.64-.39,1.81.35a2.79,2.79,0,0,1-.66,3,73.56,73.56,0,0,1-10.14,7.7l-1.1.72a20.86,20.86,0,0,0,5.34,1.79,77.28,77.28,0,0,0,11.43,1.82c.88.07,1,.15.63,1.07-.6,1.49-1.51,1.52-2.87,1.34-5.32-.68-10.6-1.55-15.55-3.7a4.78,4.78,0,0,0-4.16,0C319,379.61,313,380.75,307,381.82a.86.86,0,0,1-1.08-.58c-.94-1.89-.95-1.84,1.15-2.13a76.14,76.14,0,0,0,15.8-3.87C323.1,375.14,323.36,375,323.84,374.82Zm-6.33-9.06c0,.15,0,.25,0,.3a32,32,0,0,0,8.72,7.34,1.22,1.22,0,0,0,1.3-.11,47,47,0,0,0,6.37-4,39.89,39.89,0,0,0,4.37-3.57Z"/><path class="cls-3" d="M413.6,389.43c0-3.48,0-7,0-10.45,0-1-.32-1.3-1.3-1.27-2,.07-4.08.06-6.12,0-.9,0-1.14.27-1.13,1.16a37.29,37.29,0,0,1-2.79,15.29,24.78,24.78,0,0,1-4.18,6.51c-.51.57-.93.85-1.48.09a1.45,1.45,0,0,0-.47-.42c-1-.55-.71-1-.06-1.72a20.5,20.5,0,0,0,5.68-11,59.94,59.94,0,0,0,.77-9.26c0-4.8.05-9.6,0-14.4,0-.93.23-1.23,1.18-1.27a137.65,137.65,0,0,0,16.47-1.6c.39-.07.88-.26,1.07.34s.71,1.22.56,1.9c-.07.35-.59.21-.91.24-4.9.49-9.8,1-14.71,1.43-.84.07-1.16.27-1.14,1.18.06,2.68.06,5.35,0,8,0,1,.27,1.22,1.22,1.21,5.09-.05,10.19,0,15.29,0,.87,0,1.4,0,1.4,1.19s-.52,1.23-1.4,1.2c-1.35,0-2.72.06-4.07,0-1.1-.08-1.44.23-1.43,1.39.06,6.92,0,13.85,0,20.78,0,1.27-.93,1.85-2.13,1.35-.56-.23-.37-.71-.37-1.09Q413.6,394.79,413.6,389.43Z"/><path class="cls-3" d="M109.86,393.44a46.8,46.8,0,0,0,12,4.61c.41.11,1.41-.23,1.2.8-.28,1.4-1.26,2.21-2.2,1.9a67.63,67.63,0,0,1-12.52-5.31,1.47,1.47,0,0,0-1.73.1,59.13,59.13,0,0,1-13.93,5.83c-.38.11-.75.29-1-.18a10.84,10.84,0,0,1-1-2c-.07-.2.62-.31,1-.41a61.4,61.4,0,0,0,10.77-3.85c1-.47,1.92-1,3-1.61A28.7,28.7,0,0,1,97.61,382c-.33-.84-1-.77-1.55-.7-1.06.13-1.14-.43-1.14-1.28s.11-1.28,1.15-1.28c7.31.05,14.62,0,21.93,0,.8,0,1.11.21,1.11,1.08a5.89,5.89,0,0,1-.8,3.14A39.78,39.78,0,0,1,109.86,393.44Zm-1.65-12.2c-2.34,0-4.67,0-7,0-.76,0-1,.15-.64.92a27.87,27.87,0,0,0,6,8.77c.66.63,1.11.78,1.9.14a31.15,31.15,0,0,0,7.33-8.91c.45-.79.16-.92-.59-.92C112.89,381.25,110.55,381.24,108.21,381.24Z"/><path class="cls-3" d="M305.45,399.36a56.17,56.17,0,0,0,5.88-2.15,17.8,17.8,0,0,0,7-5.22,11.55,11.55,0,0,0,1.93-4.12c.25-1,.08-1.25-1-1.23-3.14.06-6.29,0-9.43,0-1.3,0-1.75-.67-1.36-1.92.21-.67.75-.44,1.17-.44,3.31,0,6.63-.07,9.94,0,1.18,0,1.64-.37,1.61-1.49,0-.51,0-1,.06-1.53.1-1.79.11-1.77,1.95-1.67.63,0,.83.26.76.85a21.31,21.31,0,0,1-.33,2.78c-.25,1,.21,1,1,1,5.19,0,10.38,0,15.56,0,1.13,0,1.57.21,1.46,1.46-.27,2.87-.32,5.77-.59,8.65a6.35,6.35,0,0,1-6.47,6.11c-2.42.12-4.85,0-7.27.06-1.21,0-.8-.94-1-1.52-.45-1.1-.08-1.37,1-1.29,2.08.14,4.17.14,6.25.19,2.86.06,4.43-1.29,4.8-4.16a56.22,56.22,0,0,0,.47-6.23c0-.66-.21-.88-.87-.88-4.63,0-9.27,0-13.9,0-.58,0-1,.12-1.05.79-.65,4.44-3.23,7.57-6.8,10a36.6,36.6,0,0,1-7.63,3.77,1.49,1.49,0,0,1-2.13-.62A13.13,13.13,0,0,0,305.45,399.36Z"/><path class="cls-3" d="M391.94,386.4c-1.49,0-3,.05-4.46,0-1,0-1.32.2-1.38,1.23A25.71,25.71,0,0,1,382.57,400c-.24.4-.3,1.58-1.25.81-.66-.53-2-.76-1-2.26a21.79,21.79,0,0,0,3.19-11c.39-7.9.14-15.81.19-23.71,0-.87.23-1.19,1.11-1.22a107.47,107.47,0,0,0,12.41-1.34,1.85,1.85,0,0,1,1.88,1.88c-.09.47-.51.35-.82.41-3.56.62-7.16.92-10.76,1.2-.86.06-1.18.29-1.15,1.19q.09,2.61,0,5.22c0,.89.28,1.18,1.16,1.16,3,0,6,0,9.06,0,.95,0,1.23.25,1.21,1.21-.05,3.91-.06,7.82,0,11.73,0,1-.31,1.24-1.23,1.2C395,386.35,393.47,386.4,391.94,386.4Zm-5.6-7h-.15c0,1.27,0,2.54,0,3.82,0,.67.23.88.88.88,2.42,0,4.85,0,7.27,0,.62,0,.93-.14.92-.85q0-3.81,0-7.64c0-.66-.21-.91-.88-.9-2.38,0-4.76,0-7.14,0-.78,0-.92.34-.9,1C386.37,376.88,386.34,378.11,386.34,379.35Z"/><path class="cls-2" d="M88.92,332.67c-2,0-4.08,0-6.12,0-.8,0-1.11-.17-1.1-1q.06-5.92,0-11.85c0-.93.33-1.13,1.18-1.12,4.08,0,8.15,0,12.23,0,.87,0,1.17.23,1.16,1.14,0,3.9-.06,7.81,0,11.71,0,1-.34,1.19-1.24,1.17C93,332.63,91,332.67,88.92,332.67Z"/><path class="cls-3" d="M185.21,389.17c0,3.7,0,7.4,0,11.1,0,1.14-.4,1.28-1.39,1.3s-1.35-.3-1.34-1.36c0-7.27,0-14.54,0-21.81,0-1.14-.26-1.55-1.47-1.52-3.48.08-7,0-10.46.05-1.05,0-1.13-.45-1.15-1.3s.19-1.28,1.2-1.26c3.57.05,7.14,0,10.71,0,.88,0,1.17-.27,1.17-1.16,0-4.26,0-8.51-.05-12.76,0-1.13.41-1.29,1.4-1.31s1.36.3,1.34,1.36c-.06,4,0,8.08,0,12.12,0,1.85-.3,1.72,1.67,1.73,3.27,0,6.55,0,9.82,0,.88,0,1.58-.13,1.58,1.24s-.57,1.31-1.52,1.3c-3.27,0-6.55,0-9.82,0-2,0-1.72-.13-1.73,1.67C185.2,382.11,185.21,385.64,185.21,389.17Z"/><path class="cls-3" d="M108.06,361.38c2.47,0,4.93,0,7.4,0,1,0,1.34.21,1.31,1.26-.08,2.29,0,4.59,0,6.88s.46,2.86,2.94,2.85c1,0,2,0,2.94,0,.38,0,1.17-.24,1,.54s.4,1.88-.87,1.94a26.32,26.32,0,0,1-5.47-.13,3.26,3.26,0,0,1-2.94-3.32c-.09-2.13-.08-4.25,0-6.38,0-.81-.24-1.13-1.08-1.12-3.49,0-7,0-10.46,0-.83,0-1,.35-1,1.07a19,19,0,0,1-.16,4.19c-.71,3.61-3,5.91-6.14,7.48-.47.23-2.37-1.15-2.29-1.68s.58-.44.9-.58c2.78-1.24,4.77-3.17,5.14-6.3a34.11,34.11,0,0,0,0-5.35c0-1,.21-1.4,1.31-1.37C103.05,361.44,105.56,361.38,108.06,361.38Z"/><path class="cls-3" d="M172.63,390.39c.21.67.34,1.25.56,1.79s.12.95-.48,1.3c-2.51,1.51-5,3.08-7.47,4.62A7.44,7.44,0,0,0,163,400c-.45.64-.77.45-1.17,0a5.44,5.44,0,0,0-.72-.72c-.54-.44-.74-.82-.12-1.41a3.3,3.3,0,0,0,.84-2.46c0-5.82,0-11.64,0-17.46,0-1-.34-1.31-1.31-1.26-1.32.07-2.64-.05-3.95,0-1.12.08-.94-.63-1-1.3s-.05-1.29,1-1.26c2.21.08,4.42.07,6.62,0,.94,0,1.12.33,1.11,1.18,0,6.28,0,12.57,0,18.85v1.56C167.3,394.05,169.92,392.21,172.63,390.39Z"/><path class="cls-3" d="M88.76,392.53c1.39-1.56,2.75-3,4.06-4.59.59-.69.82-.75,1.39.12a1.66,1.66,0,0,1-.32,2.51c-2.13,2.13-4.17,4.35-6.2,6.59-.51.56-.87.67-1.45.16s-1.36-.65-.69-1.64a3.76,3.76,0,0,0,.48-2.2c0-5.27,0-10.53,0-15.8,0-1.05-.35-1.32-1.31-1.24-.8.07-1.62-.06-2.42,0-1.19.14-1.54-.31-1.46-1.47,0-.75.3-.94,1-.93,1.87,0,3.74.06,5.61,0,.93,0,1.11.33,1.11,1.18,0,5.31,0,10.62,0,15.92A2.07,2.07,0,0,0,88.76,392.53Z"/><path class="cls-3" d="M168.62,367.06c-.66.55-1.27,1.13-2,1.61-.54.38-.71-.29-.94-.55-1.82-2-3.71-4-5.71-5.82-.31-.29-.91-.66-.2-1.05s.89-1.75,1.86-.88c2.25,2,4.39,4.13,6.57,6.21A5.47,5.47,0,0,1,168.62,367.06Z"/><path class="cls-3" d="M92.81,367.4c-.59.54-1.14,1.12-1.77,1.59s-.72-.25-1-.51c-1.8-1.91-3.58-3.85-5.36-5.78-.29-.31-.89-.69-.17-1.07s.92-1.54,1.83-.76a74.58,74.58,0,0,1,6,6C92.52,367,92.61,367.15,92.81,367.4Z"/><path class="cls-1" d="M119.63,302.56c0-5.86.05-11.73,0-17.59,0-1.35.4-1.59,1.63-1.57a44.77,44.77,0,0,1,8.87.74c6.47,1.47,10.53,5.39,12.12,11.83a27.44,27.44,0,0,1-.21,14.11c-1.85,6.61-6.71,10.57-13.68,11.39-2.5.29-5,.19-7.51.28-1,0-1.21-.25-1.21-1.21C119.65,314.55,119.63,308.56,119.63,302.56Z"/><path class="cls-1" d="M259.27,391.32c-1.86,0-3.73,0-5.59,0-.67,0-.85-.21-.88-.87-.13-3.18-.15-3.18,3-3.18,2.92,0,5.85,0,8.77,0,.83,0,1.08.22,1.09,1.07,0,3,.07,3-3,3Z"/><path class="cls-1" d="M258.94,370.24c1.61,0,3.23,0,4.83,0,.86,0,1.06.28,1.06,1.1,0,2.85,0,2.85-2.84,2.85-2.67,0-5.34,0-8,0-.82,0-1.19-.14-1.19-1.09,0-2.86,0-2.86,2.85-2.86Z"/><path class="cls-1" d="M244.47,370.24c1.65,0,3.31,0,5,0,.65,0,.87.21.9.88.17,3.06.19,3.06-2.9,3.06-2.68,0-5.35,0-8,0-.77,0-1-.21-1-1-.07-2.94-.1-2.94,2.79-2.94Z"/><path class="cls-1" d="M259.07,385.2c-1.78,0-3.56,0-5.34,0-.74,0-.91-.25-.93-.95-.06-2.85-.09-2.85,2.7-2.85,3,0,6,0,9,0,.9,0,1.14.26,1.14,1.14,0,2.67,0,2.67-2.66,2.67Z"/><path class="cls-1" d="M317.51,365.76h20.78a39.89,39.89,0,0,1-4.37,3.57,47,47,0,0,1-6.37,4,1.22,1.22,0,0,1-1.3.11,32,32,0,0,1-8.72-7.34C317.49,366,317.52,365.91,317.51,365.76Z"/><path class="cls-1" d="M108.21,381.24c2.34,0,4.68,0,7,0,.75,0,1,.13.59.92a31.15,31.15,0,0,1-7.33,8.91c-.79.64-1.24.49-1.9-.14a27.87,27.87,0,0,1-6-8.77c-.36-.77-.12-.93.64-.92C103.54,381.26,105.87,381.24,108.21,381.24Z"/><path class="cls-1" d="M386.34,379.35c0-1.24,0-2.47,0-3.7,0-.66.12-1,.9-1,2.38,0,4.76,0,7.14,0,.67,0,.88.24.88.9q0,3.82,0,7.64c0,.71-.3.86-.92.85-2.42,0-4.85,0-7.27,0-.65,0-.9-.21-.88-.88,0-1.28,0-2.55,0-3.82Z"/></svg>